<svg xmlns="http://www.w3.org/2000/svg" viewBox="0 0 32 32"><path d="M8.45 23.24a1.2 1.2 0 0 1-.46.07h-.25a.77.77 0 0 1-.2-.07l-.18-.12a.63.63 0 0 0-.15-.12.41.41 0 0 0-.21 0H5.4a.16.16 0 0 0-.13.06.18.18 0 0 0-.06.14 1.75 1.75 0 0 0 .23.82 2 2 0 0 0 .67.67 3.13 3.13 0 0 0 1.13.4v.63a.27.27 0 0 0 .06.17.21.21 0 0 0 .16.07h1a.21.21 0 0 0 .16-.07.27.27 0 0 0 .06-.17V25a3.22 3.22 0 0 0 1.08-.39 2.07 2.07 0 0 0 .73-.71 1.84 1.84 0 0 0 .27-1 2 2 0 0 0-.23-1 1.65 1.65 0 0 0-.75-.64A4.53 4.53 0 0 0 8.46 21l-.58-.11a.66.66 0 0 1-.28-.13.21.21 0 0 1 0-.34.51.51 0 0 1 .31-.07.62.62 0 0 1 .29.06.91.91 0 0 1 .16.1.6.6 0 0 0 .14.11.36.36 0 0 0 .19 0h1.71a.14.14 0 0 0 .12-.06.2.2 0 0 0 .06-.14 1.48 1.48 0 0 0-.23-.7 2.44 2.44 0 0 0-.63-.66 2.67 2.67 0 0 0-1-.44v-.67a.27.27 0 0 0-.06-.17.21.21 0 0 0-.16-.07h-1a.21.21 0 0 0-.16.07.27.27 0 0 0-.06.17v.64a2.44 2.44 0 0 0-1.37.71 2 2 0 0 0-.25 2.35 1.87 1.87 0 0 0 .76.65 4 4 0 0 0 1.15.34 5 5 0 0 1 .66.11.89.89 0 0 1 .33.13.22.22 0 0 1 .1.19c-.04.06-.1.13-.21.17z"/><path d="M28.41 14H27v-3.71A2.3 2.3 0 0 0 24.71 8H24V4a1 1 0 0 0-1-1h-2a1 1 0 0 0 0 2h1v3H7V5h10a1 1 0 0 0 0-2H6a1 1 0 0 0-1 1v4h-.71A2.3 2.3 0 0 0 2 10.29V20a1 1 0 0 0 2 0v-9.71a.29.29 0 0 1 .29-.29h20.42a.29.29 0 0 1 .29.29V14h-.5a4.5 4.5 0 0 0 0 9h.5v3.71a.29.29 0 0 1-.29.29H4.29a.29.29 0 0 1-.29-.29V24a1 1 0 0 0-2 0v2.71A2.3 2.3 0 0 0 4.29 29h20.42A2.3 2.3 0 0 0 27 26.71V23h1.41A1.59 1.59 0 0 0 30 21.41v-5.82A1.59 1.59 0 0 0 28.41 14zM28 21h-3.5a2.5 2.5 0 0 1 0-5H28z"/></svg>